<svg id="visual" viewBox="0 0 900 600" width="900" height="600" xmlns="http://www.w3.org/2000/svg" xmlns:xlink="http://www.w3.org/1999/xlink" version="1.1"><rect x="0" y="0" width="900" height="600" fill="#001220"></rect><defs><linearGradient id="grad1_0" x1="33.3%" y1="0%" x2="100%" y2="100%"><stop offset="20%" stop-color="#001220" stop-opacity="1"></stop><stop offset="80%" stop-color="#001220" stop-opacity="1"></stop></linearGradient></defs><defs><linearGradient id="grad2_0" x1="0%" y1="0%" x2="66.7%" y2="100%"><stop offset="20%" stop-color="#001220" stop-opacity="1"></stop><stop offset="80%" stop-color="#001220" stop-opacity="1"></stop></linearGradient></defs><g transform="translate(900, 0)"><path d="M0 432.7C-30.7 437.3 -61.5 441.9 -83.7 420.8C-105.9 399.6 -119.5 352.8 -135.9 328C-152.2 303.2 -171.1 300.5 -203.3 304.3C-235.5 308.1 -281 318.5 -305.9 305.9C-330.9 293.4 -335.4 258 -340.9 227.8C-346.4 197.6 -352.8 172.6 -357.5 148.1C-362.3 123.6 -365.4 99.7 -377.6 75.1C-389.8 50.5 -411.3 25.3 -432.7 0L0 0Z" fill="#461857"></path></g><g transform="translate(0, 600)"><path d="M0 -432.7C29.6 -435.8 59.2 -438.9 84.4 -424.4C109.6 -409.8 130.3 -377.6 144.7 -349.2C159 -320.8 167 -296.2 196.1 -293.5C225.2 -290.8 275.3 -309.9 297.7 -297.7C320.1 -285.5 314.6 -242 315.1 -210.6C315.6 -179.1 322 -159.6 340 -140.8C358 -122 387.7 -103.9 405.1 -80.6C422.5 -57.2 427.6 -28.6 432.7 0L0 0Z" fill="#461857"></path></g></svg>